<?xml version="1.0" encoding="UTF-8" standalone="no"?>
<!DOCTYPE svg PUBLIC "-//W3C//DTD SVG 1.1//EN" "http://www.w3.org/Graphics/SVG/1.1/DTD/svg11.dtd">
<svg width="100%" height="100%" viewBox="0 0 136 133" version="1.1" xmlns="http://www.w3.org/2000/svg" xmlns:xlink="http://www.w3.org/1999/xlink" xml:space="preserve" xmlns:serif="http://www.serif.com/" style="fill-rule:evenodd;clip-rule:evenodd;stroke-linejoin:round;stroke-miterlimit:1.41421;">
    <path d="M67.867,0C30.392,0 0,30.387 0,67.879C0,97.862 19.446,123.304 46.417,132.279C49.812,132.9 51.05,130.804 51.05,129.008C51.05,127.396 50.992,123.129 50.958,117.463C32.079,121.567 28.096,108.367 28.096,108.367C25.008,100.525 20.558,98.438 20.558,98.438C14.396,94.225 21.025,94.313 21.025,94.313C27.837,94.792 31.421,101.304 31.421,101.304C37.475,111.679 47.308,108.683 51.175,106.946C51.792,102.558 53.546,99.567 55.483,97.871C40.412,96.158 24.567,90.333 24.567,64.325C24.567,56.917 27.212,50.858 31.554,46.113C30.854,44.396 28.525,37.496 32.221,28.15C32.221,28.15 37.917,26.325 50.883,35.108C56.296,33.604 62.104,32.85 67.875,32.825C73.642,32.85 79.446,33.604 84.867,35.108C97.825,26.325 103.512,28.15 103.512,28.15C107.217,37.496 104.887,44.396 104.192,46.113C108.542,50.858 111.167,56.917 111.167,64.325C111.167,90.4 95.296,96.138 80.179,97.817C82.612,99.913 84.783,104.054 84.783,110.388C84.783,119.463 84.7,126.783 84.7,129.008C84.7,130.821 85.925,132.933 89.367,132.271C116.317,123.279 135.746,97.854 135.746,67.879C135.746,30.387 105.354,0 67.867,0Z" style="fill:rgb(32, 28, 7);"/>
</svg>
