<?xml version="1.0" encoding="UTF-8" standalone="no"?>
<!DOCTYPE svg PUBLIC "-//W3C//DTD SVG 1.1//EN" "http://www.w3.org/Graphics/SVG/1.1/DTD/svg11.dtd">
<svg width="100%" height="100%" viewBox="0 0 150 150" version="1.1" xmlns="http://www.w3.org/2000/svg" xmlns:xlink="http://www.w3.org/1999/xlink" xml:space="preserve" xmlns:serif="http://www.serif.com/" style="fill-rule:evenodd;clip-rule:evenodd;stroke-linejoin:round;stroke-miterlimit:1.41421;">
    <g>
        <path d="M127.817,127.817L105.571,127.817L105.571,93.008C105.571,84.708 105.429,74.029 94.012,74.029C82.437,74.029 80.671,83.075 80.671,92.412L80.671,127.817L58.45,127.817L58.45,56.237L79.775,56.237L79.775,66.021L80.079,66.021C83.046,60.396 90.304,54.458 101.129,54.458C123.654,54.458 127.817,69.279 127.817,88.558L127.817,127.817ZM33.362,46.454C26.217,46.454 20.458,40.675 20.458,33.554C20.458,26.433 26.217,20.654 33.362,20.654C40.479,20.654 46.258,26.433 46.258,33.554C46.258,40.675 40.479,46.454 33.362,46.454ZM44.492,127.817L22.221,127.817L22.221,56.237L44.492,56.237L44.492,127.817ZM138.896,0L11.062,0C4.958,0 0,4.846 0,10.817L0,139.179C0,145.15 4.958,150 11.062,150L138.896,150C145.013,150 149.996,145.15 149.996,139.179L149.996,10.817C149.996,4.846 145.013,0 138.896,0Z" style="fill:rgb(32, 28, 7);"/>
    </g>
</svg>
