<?xml version="1.0" encoding="UTF-8" standalone="no"?>
<!DOCTYPE svg PUBLIC "-//W3C//DTD SVG 1.1//EN" "http://www.w3.org/Graphics/SVG/1.1/DTD/svg11.dtd">
<svg width="100%" height="100%" viewBox="0 0 80 90" version="1.1" xmlns="http://www.w3.org/2000/svg" xmlns:xlink="http://www.w3.org/1999/xlink" xml:space="preserve" xmlns:serif="http://www.serif.com/" style="fill-rule:evenodd;clip-rule:evenodd;stroke-linejoin:round;stroke-miterlimit:1.41421;">
    <path d="M23.97,90L56.02,90C61.585,90 66.1,85.721 66.1,80.431L66.1,9.576C66.1,4.291 61.587,0 56.03,0L23.98,0C18.416,0 13.9,4.291 13.9,9.576L13.9,80.43C13.9,85.718 18.413,90 23.98,90M40.01,86.743C37.517,86.743 35.504,84.723 35.504,82.245C35.504,79.756 37.514,77.743 40.01,77.743C42.497,77.743 44.504,79.753 44.504,82.245C44.504,84.726 42.494,86.743 40.01,86.743M33.142,5.832L46.869,5.832C47.425,5.832 47.879,6.215 47.879,6.684C47.879,7.155 47.427,7.538 46.869,7.538L33.142,7.538C32.592,7.538 32.132,7.155 32.132,6.684C32.132,6.215 32.586,5.832 33.142,5.832M17.853,16.63C17.853,15.836 18.528,15.192 19.361,15.192L60.651,15.192C61.486,15.192 62.158,15.833 62.158,16.63L62.158,73.12C62.158,73.911 61.486,74.553 60.651,74.553L19.361,74.553C18.528,74.553 17.853,73.911 17.853,73.12L17.853,16.63" style="fill:rgb(32,28,7);fill-rule:nonzero;"/>
</svg>
